{
  "accessors": [
    {
      "bufferView": 2,
      "componentType": 5126,
      "count": 5314,
      "max": [
        0.14600013196468353,
        0.13859683275222778,
        0.2180321216583252
      ],
      "min": [
        -0.14600013196468353,
        -0.000230446457862854,
        -0.22902952134609222
      ],
      "type": "VEC3"
    },
    {
      "bufferView": 2,
      "byteOffset": 63768,
      "componentType": 5126,
      "count": 5314,
      "max": [
        0.9999995231628418,
        0.999915361404419,
        1.0
      ],
      "min": [
        -0.9999970197677612,
        -0.9999995231628418,
        -0.9989618062973022
      ],
      "type": "VEC3"
    },
    {
      "bufferView": 1,
      "componentType": 5126,
      "count": 5314,
      "max": [
        1.0,
        1.0
      ],
      "min": [
        0.0,
        0.022897448390722275
      ],
      "type": "VEC2"
    },
    {
      "bufferView": 0,
      "componentType": 5125,
      "count": 24372,
      "type": "SCALAR"
    }
  ],
  "asset": {
    "extras": {
      "author": "SugarSatea (https://sketchfab.com/SugarSatea)",
      "license": "SKETCHFAB Standard (https://sketchfab.com/licenses)",
      "source": "https://sketchfab.com/3d-models/simple-pc-mouse-4a8fcd93c882402cab7d2d6458855ac5",
      "title": "Simple PC Mouse"
    },
    "generator": "Sketchfab-15.49.0",
    "version": "2.0"
  },
  "bufferViews": [
    {
      "buffer": 0,
      "byteLength": 97488,
      "name": "floatBufferViews",
      "target": 34963
    },
    {
      "buffer": 0,
      "byteLength": 42512,
      "byteOffset": 97488,
      "byteStride": 8,
      "name": "floatBufferViews",
      "target": 34962
    },
    {
      "buffer": 0,
      "byteLength": 127536,
      "byteOffset": 140000,
      "byteStride": 12,
      "name": "floatBufferViews",
      "target": 34962
    }
  ],
  "buffers": [
    {
      "byteLength": 267536,
      "uri": "mouse.bin"
    }
  ],
  "extensionsUsed": [
    "KHR_materials_clearcoat"
  ],
  "materials": [
    {
      "doubleSided": true,
      "extensions": {
        "KHR_materials_clearcoat": {
          "clearcoatFactor": 1.0,
          "clearcoatRoughnessFactor": 0.04
        }
      },
      "name": "Mouse.001",
      "pbrMetallicRoughness": {
        "baseColorFactor": [
          0.00326723,
          0.00326723,
          0.00326723,
          1.0
        ],
        "metallicFactor": 0.0,
        "roughnessFactor": 0.1
      }
    }
  ],
  "meshes": [
    {
      "name": "Object_0",
      "primitives": [
        {
          "attributes": {
            "NORMAL": 1,
            "POSITION": 0,
            "TEXCOORD_0": 2
          },
          "indices": 3,
          "material": 0,
          "mode": 4
        }
      ]
    }
  ],
  "nodes": [
    {
      "children": [
        1
      ],
      "matrix": [
        1.0,
        0.0,
        0.0,
        0.0,
        0.0,
        2.220446049250313e-16,
        -1.0,
        0.0,
        0.0,
        1.0,
        2.220446049250313e-16,
        0.0,
        0.0,
        0.0,
        0.0,
        1.0
      ],
      "name": "Sketchfab_model"
    },
    {
      "children": [
        2
      ],
      "name": "root"
    },
    {
      "children": [
        3
      ],
      "matrix": [
        1.0,
        0.0,
        0.0,
        0.0,
        0.0,
        2.220446049250313e-16,
        1.0,
        0.0,
        0.0,
        -1.0,
        2.220446049250313e-16,
        0.0,
        0.0,
        0.0,
        0.0,
        1.0
      ],
      "name": "GLTF_SceneRootNode"
    },
    {
      "children": [
        4
      ],
      "matrix": [
        0.4273960292339325,
        0.0,
        0.0,
        0.0,
        0.0,
        0.4273960292339325,
        0.0,
        0.0,
        0.0,
        0.0,
        0.4273960292339325,
        0.0,
        0.0,
        0.0,
        0.0,
        1.0
      ],
      "name": "Mouse_0"
    },
    {
      "mesh": 0,
      "name": "Object_4"
    }
  ],
  "scene": 0,
  "scenes": [
    {
      "name": "Sketchfab_Scene",
      "nodes": [
        0
      ]
    }
  ]
}
